<svg width="292" height="130" viewBox="0 0 292 130" fill="none" xmlns="http://www.w3.org/2000/svg">
<rect x="156.812" y="0.999756" width="121.009" height="128" rx="59" fill="#D9D9D9" stroke="black" stroke-width="2"/>
<path d="M1 68.0061V61.9934L156.179 61.0061V68.9934L1 68.0061Z" fill="#D9D9D9" stroke="black" stroke-width="2"/>
<path d="M147.814 48H163C164.105 48 165 48.8954 165 50V80C165 81.1046 164.105 82 163 82H147.843C147.005 82 146.256 81.4771 145.966 80.6901L143.822 74.8576C141.402 68.2745 141.449 61.0374 143.956 54.4867L145.946 49.2852C146.242 48.5112 146.985 48 147.814 48Z" fill="#D9D9D9" stroke="black" stroke-width="2"/>
<path d="M95.3569 60.5072L91.9299 57.9998H72.2829L70.7049 60.3088V64.9998V69.6907L72.2829 71.9998H91.9299L95.3569 69.4923V64.4998V60.5072Z" fill="#D9D9D9" stroke="black" stroke-width="2"/>
<rect x="184.147" y="27.9998" width="6.20063" height="18" rx="1" fill="#D9D9D9" stroke="black" stroke-width="2"/>
<path d="M232.27 36.9999C232.27 49.3302 223.986 58.9998 214.135 58.9998C204.284 58.9998 196 49.3302 196 36.9999C196 24.6695 204.284 15 214.135 15C223.986 15 232.27 24.6695 232.27 36.9999Z" fill="#D9D9D9" stroke="black" stroke-width="2"/>
<path d="M226.753 17.4643H228.853V56.5355H226.753V17.4643Z" fill="#D9D9D9" stroke="black" stroke-width="2"/>
<path d="M226.119 36.9999C226.119 45.7736 220.908 52.4284 214.135 52.4284C207.303 52.4284 201.467 45.7009 201.467 36.9999C201.467 28.2988 207.303 21.5714 214.135 21.5714C220.908 21.5714 226.119 28.2262 226.119 36.9999Z" fill="#D9D9D9" stroke="black" stroke-width="2"/>
<line x1="214.818" y1="26.9642" x2="229.169" y2="26.9642" stroke="black" stroke-width="2"/>
<line x1="214.818" y1="45.857" x2="229.169" y2="45.857" stroke="black" stroke-width="2"/>
<path d="M203.519 33.3928H204.253C204.529 33.3928 204.753 33.6166 204.753 33.8928V40.107C204.753 40.3831 204.529 40.607 204.253 40.607H203.519C203.243 40.607 203.019 40.3831 203.019 40.107V33.8928C203.019 33.6166 203.243 33.3928 203.519 33.3928Z" fill="#D9D9D9" stroke="black"/>
<rect x="-0.313175" y="0.678947" width="2.22599" height="6.00938" rx="0.5" transform="matrix(0.289811 0.957084 -0.916161 0.400811 214.122 22.9208)" fill="#D9D9D9" stroke="black"/>
<rect x="0.602986" y="-0.278137" width="2.22599" height="6.00938" rx="0.5" transform="matrix(0.289811 -0.957084 0.916161 0.400811 207.301 48.7121)" fill="#D9D9D9" stroke="black"/>
<path d="M222.019 36.5892C222.019 41.8877 218.478 45.857 214.476 45.857C210.475 45.857 206.934 41.8877 206.934 36.5892C206.934 31.2906 210.475 27.3214 214.476 27.3214C218.478 27.3214 222.019 31.2906 222.019 36.5892Z" fill="#D9D9D9" stroke="black" stroke-width="2"/>
<rect x="235.623" y="96.9998" width="3.92939" height="12" rx="1" fill="#D9D9D9" stroke="black" stroke-width="2"/>
<path d="M210.649 93.9998H220.294H225.636C227.43 93.9998 229.183 94.5357 230.67 95.5388L231.099 95.8288L234.064 97.8288L234.542 98.151C235.821 99.0141 236.588 100.456 236.588 102V103.681C236.588 104.395 236.424 105.099 236.108 105.739C235.887 106.185 235.597 106.592 235.247 106.946L230.986 111.257L227.66 113.95C226.727 114.706 225.651 115.267 224.497 115.601L222.3 116.236C220.667 116.708 218.933 116.708 217.3 116.236L215.103 115.601C213.949 115.267 212.873 114.706 211.94 113.95L209.965 112.351C209.135 111.679 208.431 110.865 207.886 109.946L206.242 107.174C205.999 106.764 205.789 106.336 205.614 105.892L204.454 102.959C204.154 102.199 204 101.39 204 100.573C204 98.6146 204.884 96.7609 206.407 95.5287L206.466 95.4809C207.649 94.5226 209.126 93.9998 210.649 93.9998Z" fill="#D9D9D9" stroke="black" stroke-width="2"/>
<line x1="216.833" y1="98.9998" x2="240.551" y2="98.9998" stroke="black" stroke-width="2"/>
<line x1="216.833" y1="107" x2="239.562" y2="107" stroke="black" stroke-width="2"/>
<path d="M244 117L241.626 118.874C239.841 120.283 237.848 121.405 235.719 122.202V122.202C234.299 122.732 232.829 123.115 231.331 123.342L227 124L219 125L215.607 125C212.209 125 208.819 124.694 205.476 124.085L203.063 123.645C200.708 123.216 198.406 122.537 196.196 121.619V121.619C194.402 120.874 192.676 119.976 191.037 118.933L188 117L183 113V113C179.677 110.342 176.658 107.323 174 104V104" stroke="black"/>
<path d="M244 13L241.626 11.1261C239.841 9.7173 237.848 8.59457 235.719 7.7982V7.7982C234.299 7.26751 232.829 6.88533 231.331 6.6578L227 6L219 5L215.607 5C212.209 5 208.819 5.30632 205.476 5.91523L203.063 6.35476C200.708 6.78372 198.406 7.46289 196.196 8.38072V8.38072C194.402 9.12551 192.676 10.0243 191.037 11.0671L188 13L183 17V17C179.677 19.6585 176.658 22.6769 174 26V26" stroke="black"/>
<line y1="-0.5" x2="19.4336" y2="-0.5" transform="matrix(-0.411116 0.911583 -0.791129 -0.611649 251.989 11)" stroke="black"/>
<path d="M259.504 87.8985L272 95.9997" stroke="black"/>
<path d="M252 11.4999V11.4999C252.896 10.3049 254.264 9.78655 255.398 10.2118L257.5 11L257.767 11.1483C260.58 12.711 263.174 14.6742 265.5 17V17L268.5 20.5L271 24L274 29L276 32.5L278 36.5001L279.5 41L281 46.5V46.5C281.666 51.4932 282 56.5994 282 61.7772L282 64.5L282 65.0978C282 69.6913 281.665 74.3414 281 79V79L280.017 83.5865C279.673 85.1917 279.2 86.7803 278.604 88.3302L277.348 91.5953C277.118 92.1939 276.806 92.759 276.426 93.2658L275.993 93.8423C274.806 95.4248 272.988 96.0954 271.5 95.5V95.5" stroke="black"/>
</svg>
