<svg width="70" height="65" viewBox="0 0 243 188" fill="none" xmlns="http://www.w3.org/2000/svg">
<g id="&#208;&#154;&#208;&#190;&#209;&#128;&#208;&#191;&#209;&#131;&#209;&#129; &#209;&#129;&#208;&#182;&#208;&#176;&#209;&#130;&#209;&#139;&#208;&#185;">
<path id="Rectangle 152" d="M22.6987 45.006C23.4003 44.2947 24.2685 43.7698 25.2244 43.4791L25.651 43.3494V94H7.22514L7.82751 85.7559L9.18207 76.4866L11.2167 68.2358L13.2467 61.0327L16.3858 53.3949C16.5317 53.04 16.7113 52.6998 16.9222 52.3791L19.5895 48.3231C19.806 47.9938 20.0544 47.6867 20.3311 47.4062L22.6987 45.006Z" fill="#D9D9D9" stroke="black" stroke-width="2"/>
<path id="Rectangle 155" d="M22.6987 142.994C23.4003 143.705 24.2685 144.23 25.2244 144.521L25.651 144.651V94H7.22514L7.82751 102.244L9.18207 111.513L11.2167 119.764L13.2467 126.967L16.3858 134.605C16.5317 134.96 16.7113 135.3 16.9222 135.621L19.5895 139.677C19.806 140.006 20.0544 140.313 20.3311 140.594L22.6987 142.994Z" fill="#D9D9D9" stroke="black" stroke-width="2"/>
<rect id="Rectangle 154" x="26.2837" y="43" width="211.216" height="102" fill="#D9D9D9" stroke="black" stroke-width="2"/>
<g id="&#208;&#147;&#209;&#131;&#209;&#129;&#208;&#181;&#208;&#189;&#208;&#184;&#209;&#134;&#208;&#176;1">
<path id="Rectangle 143" d="M1 41.7296V1.49193L1.68764 1H120.959H240.325L241.602 1.60876V42.3912L240.325 43H120.959H1.88789L1 41.7296Z" fill="#D9D9D9" stroke="black" stroke-width="2"/>
<rect id="Rectangle 147" x="1.18213" y="1.5" width="240.235" height="3" fill="#D9D9D9" stroke="black"/>
<g id="&#208;&#159;&#208;&#187;&#208;&#176;&#209;&#129;&#209;&#130;&#208;&#184;&#208;&#189;&#208;&#186;&#208;&#176;5">
<rect id="Rectangle 150" x="-0.5" y="0.5" width="7.88401" height="38" transform="matrix(-1 0 0 1 240.917 4)" fill="#D9D9D9" stroke="black"/>
<line id="Line 11" y1="-0.5" x2="33.5484" y2="-0.5" transform="matrix(-0.180072 0.983653 0.567824 0.82315 240.496 8)" stroke="black"/>
<line id="Line 12" y1="-0.5" x2="33.5484" y2="-0.5" transform="matrix(-0.180072 -0.983653 -0.567824 0.82315 240.496 41)" stroke="black"/>
</g>
<g id="&#208;&#159;&#208;&#187;&#208;&#176;&#209;&#129;&#209;&#130;&#208;&#184;&#208;&#189;&#208;&#186;&#208;&#176;4">
<rect id="Rectangle 150_2" x="-0.5" y="0.5" width="12.6677" height="38" transform="matrix(-1 0 0 1 232.033 4)" fill="#D9D9D9" stroke="black"/>
<line id="Line 11_2" y1="-0.5" x2="34.2838" y2="-0.5" transform="matrix(-0.271091 0.962554 0.7278 0.68579 230.847 8)" stroke="black"/>
<line id="Line 12_2" y1="-0.5" x2="34.2838" y2="-0.5" transform="matrix(-0.271091 -0.962554 -0.7278 0.68579 230.847 41)" stroke="black"/>
</g>
<g id="&#208;&#159;&#208;&#187;&#208;&#176;&#209;&#129;&#209;&#130;&#208;&#184;&#208;&#189;&#208;&#186;&#208;&#176;3">
<rect id="Rectangle 150_3" x="24.418" y="4.5" width="16.0846" height="38" fill="#D9D9D9" stroke="black"/>
<line id="Line 11_3" y1="-0.5" x2="34.9852" y2="-0.5" transform="matrix(0.33207 0.943255 -0.798532 0.601952 27.335 8)" stroke="black"/>
<line id="Line 12_3" y1="-0.5" x2="34.9852" y2="-0.5" transform="matrix(0.33207 -0.943255 0.798532 0.601952 27.335 41)" stroke="black"/>
</g>
<g id="&#208;&#159;&#208;&#187;&#208;&#176;&#209;&#129;&#209;&#130;&#208;&#184;&#208;&#189;&#208;&#186;&#208;&#176;2">
<rect id="Rectangle 150_4" x="10.7505" y="4.5" width="13.3511" height="38" fill="#D9D9D9" stroke="black"/>
<line id="Line 11_4" y1="-0.5" x2="34.4127" y2="-0.5" transform="matrix(0.28358 0.958949 -0.744253 0.667898 13.23 8)" stroke="black"/>
<line id="Line 12_4" y1="-0.5" x2="34.4127" y2="-0.5" transform="matrix(0.28358 -0.958949 0.744253 0.667898 13.23 41)" stroke="black"/>
</g>
<g id="&#208;&#159;&#208;&#187;&#208;&#176;&#209;&#129;&#209;&#130;&#208;&#184;&#208;&#189;&#208;&#186;&#208;&#176;1">
<rect id="Rectangle 150_5" x="1.18213" y="4.5" width="9.25078" height="38" fill="#D9D9D9" stroke="black"/>
<line id="Line 11_5" y1="-0.5" x2="33.7281" y2="-0.5" transform="matrix(0.206668 0.978411 -0.622758 0.782415 2.32373 8)" stroke="black"/>
<line id="Line 12_5" y1="-0.5" x2="33.7281" y2="-0.5" transform="matrix(0.206668 -0.978411 0.622758 0.782415 2.32373 41)" stroke="black"/>
</g>
</g>
<g id="&#208;&#147;&#209;&#131;&#209;&#129;&#208;&#181;&#208;&#189;&#208;&#184;&#209;&#134;&#208;&#176;2">
<path id="Rectangle 143_2" d="M1 146.27V186.508L1.68764 187H120.959H240.325L241.602 186.391V145.609L240.325 145H120.959H1.88789L1 146.27Z" fill="#D9D9D9" stroke="black" stroke-width="2"/>
<rect id="Rectangle 147_2" x="0.5" y="-0.5" width="240.235" height="3" transform="matrix(1 0 0 -1 0.682129 186)" fill="#D9D9D9" stroke="black"/>
<g id="&#208;&#159;&#208;&#187;&#208;&#176;&#209;&#129;&#209;&#130;&#208;&#184;&#208;&#189;&#208;&#186;&#208;&#176;5_2">
<rect id="Rectangle 150_6" x="241.417" y="183.5" width="7.88401" height="38" transform="rotate(-180 241.417 183.5)" fill="#D9D9D9" stroke="black"/>
<line id="Line 11_6" y1="-0.5" x2="33.5484" y2="-0.5" transform="matrix(-0.180072 -0.983653 0.567824 -0.82315 240.496 180)" stroke="black"/>
<line id="Line 12_6" y1="-0.5" x2="33.5484" y2="-0.5" transform="matrix(-0.180072 0.983653 -0.567824 -0.82315 240.496 147)" stroke="black"/>
</g>
<g id="&#208;&#159;&#208;&#187;&#208;&#176;&#209;&#129;&#209;&#130;&#208;&#184;&#208;&#189;&#208;&#186;&#208;&#176;4_2">
<rect id="Rectangle 150_7" x="232.533" y="183.5" width="12.6677" height="38" transform="rotate(-180 232.533 183.5)" fill="#D9D9D9" stroke="black"/>
<line id="Line 11_7" y1="-0.5" x2="34.2838" y2="-0.5" transform="matrix(-0.271091 -0.962554 0.7278 -0.68579 230.847 180)" stroke="black"/>
<line id="Line 12_7" y1="-0.5" x2="34.2838" y2="-0.5" transform="matrix(-0.271091 0.962554 -0.7278 -0.68579 230.847 147)" stroke="black"/>
</g>
<g id="&#208;&#159;&#208;&#187;&#208;&#176;&#209;&#129;&#209;&#130;&#208;&#184;&#208;&#189;&#208;&#186;&#208;&#176;3_2">
<rect id="Rectangle 150_8" x="0.5" y="-0.5" width="16.0846" height="38" transform="matrix(1 0 0 -1 23.918 183)" fill="#D9D9D9" stroke="black"/>
<line id="Line 11_8" y1="-0.5" x2="34.9852" y2="-0.5" transform="matrix(0.33207 -0.943255 -0.798532 -0.601952 26.6519 180)" stroke="black"/>
<line id="Line 12_8" y1="-0.5" x2="34.9852" y2="-0.5" transform="matrix(0.33207 0.943255 0.798532 -0.601952 26.6519 147)" stroke="black"/>
</g>
<g id="&#208;&#159;&#208;&#187;&#208;&#176;&#209;&#129;&#209;&#130;&#208;&#184;&#208;&#189;&#208;&#186;&#208;&#176;2_2">
<rect id="Rectangle 150_9" x="0.5" y="-0.5" width="13.3511" height="38" transform="matrix(1 0 0 -1 10.2505 183)" fill="#D9D9D9" stroke="black"/>
<line id="Line 11_9" y1="-0.5" x2="34.4127" y2="-0.5" transform="matrix(0.28358 -0.958949 -0.744253 -0.667898 12.5459 180)" stroke="black"/>
<line id="Line 12_9" y1="-0.5" x2="34.4127" y2="-0.5" transform="matrix(0.28358 0.958949 0.744253 -0.667898 12.5459 147)" stroke="black"/>
</g>
<g id="&#208;&#159;&#208;&#187;&#208;&#176;&#209;&#129;&#209;&#130;&#208;&#184;&#208;&#189;&#208;&#186;&#208;&#176;1_2">
<rect id="Rectangle 150_10" x="0.5" y="-0.5" width="9.25078" height="38" transform="matrix(1 0 0 -1 0.682129 183)" fill="#D9D9D9" stroke="black"/>
<line id="Line 11_10" y1="-0.5" x2="33.7281" y2="-0.5" transform="matrix(0.206668 -0.978411 -0.622758 -0.782415 3.00586 180)" stroke="black"/>
<line id="Line 12_10" y1="-0.5" x2="33.7281" y2="-0.5" transform="matrix(0.206668 0.978411 0.622758 -0.782415 3.00586 147)" stroke="black"/>
</g>
</g>
<path id="Rectangle 151" d="M170.479 61.5573L189.165 50H233.4V138H189.165L170.479 126.443V94.5V61.5573Z" fill="#D9D9D9" stroke="black" stroke-width="2"/>
</g>
</svg>
